<?xml version="1.0" encoding="UTF-8" standalone="no"?>
<svg
   xmlns:dc="http://purl.org/dc/elements/1.1/"
   xmlns:cc="http://creativecommons.org/ns#"
   xmlns:rdf="http://www.w3.org/1999/02/22-rdf-syntax-ns#"
   xmlns:svg="http://www.w3.org/2000/svg"
   xmlns="http://www.w3.org/2000/svg"
   xmlns:xlink="http://www.w3.org/1999/xlink"
   xmlns:sodipodi="http://sodipodi.sourceforge.net/DTD/sodipodi-0.dtd"
   xmlns:inkscape="http://www.inkscape.org/namespaces/inkscape"
   inkscape:export-ydpi="300.01077"
   inkscape:export-xdpi="300.01077"
   inkscape:export-filename="/Users/stevepiercy/projects/pycal.org/assets/og-default.png"
   width="299.49658mm"
   height="147.76543mm"
   viewBox="-12.661 -12.661 357.95473 176.60747"
   version="1.1"
   id="svg1"
   xml:space="preserve"
   inkscape:version="1.0rc1 (09960d6, 2020-04-09)"
   sodipodi:docname="python-calendar-ecosystem-name-horizontal-logo.svg"><metadata
     id="metadata899"><rdf:RDF><cc:Work
         rdf:about=""><dc:format>image/svg+xml</dc:format><dc:type
           rdf:resource="http://purl.org/dc/dcmitype/StillImage" /><dc:title /></cc:Work></rdf:RDF></metadata><sodipodi:namedview
     id="namedview1"
     pagecolor="#505050"
     bordercolor="#eeeeee"
     borderopacity="1"
     inkscape:showpageshadow="0"
     inkscape:pageopacity="0"
     inkscape:pagecheckerboard="0"
     inkscape:deskcolor="#505050"
     inkscape:document-units="mm"
     inkscape:zoom="0.62"
     inkscape:cx="306.48698"
     inkscape:cy="246.65994"
     inkscape:window-width="1841"
     inkscape:window-height="1232"
     inkscape:window-x="1379"
     inkscape:window-y="25"
     inkscape:window-maximized="0"
     inkscape:current-layer="layer1"
     inkscape:document-rotation="0"
     showgrid="false"
     fit-margin-top="20"
     fit-margin-left="20"
     fit-margin-right="20"
     fit-margin-bottom="20" /><defs
     id="defs1"><linearGradient
       id="linearGradient2140"
       inkscape:collect="always"><stop
         style="stop-color:#366a96;stop-opacity:1"
         offset="0"
         id="stop2136" /><stop
         style="stop-color:#3b79aa;stop-opacity:1"
         offset="1"
         id="stop2138" /></linearGradient><linearGradient
       inkscape:collect="always"
       id="linearGradient2124"><stop
         style="stop-color:#ffe873;stop-opacity:1"
         offset="0"
         id="stop2120" /><stop
         style="stop-color:#ffc836;stop-opacity:1"
         offset="1"
         id="stop2122" /></linearGradient><linearGradient
       inkscape:collect="always"
       xlink:href="#linearGradient2140"
       id="linearGradient1120"
       x1="-55.38303"
       y1="530.40845"
       x2="31.289402"
       y2="549.31537"
       gradientUnits="userSpaceOnUse"
       gradientTransform="translate(239.20131,60.063764)" /><linearGradient
       inkscape:collect="always"
       xlink:href="#linearGradient2140"
       id="linearGradient1121"
       gradientUnits="userSpaceOnUse"
       x1="-55.88031"
       y1="529.84692"
       x2="30.626369"
       y2="550.64142"
       gradientTransform="rotate(-90,137.45613,483.98203)" /><linearGradient
       inkscape:collect="always"
       xlink:href="#linearGradient2124"
       id="linearGradient2126"
       x1="250.95847"
       y1="677.21368"
       x2="270.38803"
       y2="590.25171"
       gradientUnits="userSpaceOnUse" /><linearGradient
       inkscape:collect="always"
       xlink:href="#linearGradient2124"
       id="linearGradient2134"
       x1="183.321"
       y1="652.16925"
       x2="270.38782"
       y2="677.31848"
       gradientUnits="userSpaceOnUse" /></defs><g
     inkscape:label="Ebene 1"
     inkscape:groupmode="layer"
     id="layer1"
     transform="translate(-151.21164,-557.8013)"><path
       id="path1121"
       style="fill:url(#linearGradient1121);fill-opacity:1;stroke-width:0.999992;stroke-linecap:round;stroke-linejoin:round"
       d="m 162.4544,662.34109 c 3.1e-4,8.27159 6.70582,14.97687 14.97738,14.97687 v 5.1e-4 h 5.88923 c 0.0938,-4.29613 0.13592,-4.2338 0,-12.66124 h -5.88923 c -1.2793,-1.6e-4 -2.31626,-1.03735 -2.31614,-2.31665 h -5.1e-4 v -57.11176 c 1.7e-4,-1.2793 1.03735,-2.31625 2.31665,-2.31614 v -5.2e-4 h 76.37212 v -12.66072 h -76.37212 c -8.27179,2e-5 -14.97738,6.70561 -14.97738,14.97738 z"
       sodipodi:nodetypes="ccccccccccccccsc"
       inkscape:connector-curvature="0" /><path
       id="path1063"
       style="fill:url(#linearGradient1120);fill-opacity:1;stroke-width:0.999992;stroke-linecap:round;stroke-linejoin:round"
       d="m 198.29838,569.04406 c -8.27159,3.1e-4 -14.97687,6.70582 -14.97687,14.97738 h -5.1e-4 l 0.49728,6.4508 11.99789,-0.22086 0.16607,-6.2299 c 1.6e-4,-1.2793 1.03735,-2.31626 2.31665,-2.31614 v -5.1e-4 h 57.11176 c 1.2793,1.7e-4 2.31625,1.03735 2.31614,2.31665 h 5.2e-4 v 76.37211 h 12.66072 v -76.37211 c -2e-5,-8.27179 -6.70561,-14.97738 -14.97738,-14.97738 z"
       sodipodi:nodetypes="ccccccccccccccsc"
       inkscape:connector-curvature="0" /><path
       id="rect1074"
       style="fill:#3b79aa;fill-opacity:1;stroke-width:1;stroke-linecap:round;stroke-linejoin:round"
       d="m 199.90486,606.49476 v 15.35076 h 15.351 v -15.351 z m 19.27376,-2.4e-4 v 15.351 h 15.351 v -15.351 z m 19.27427,0 v 15.351 h 15.35101 v -15.351 z m -38.54803,19.27376 v 15.351 h 15.351 v -15.351 z m 19.27376,0 v 15.351 h 15.351 v -15.351 z m 19.27427,0 v 15.351 h 15.35101 v -15.351 z m -38.54803,19.27427 v 15.351 h 15.351 v -15.351 z m 19.27376,0 v 15.351 h 15.351 v -15.351 z m 19.27427,0 v 15.351 h 15.35101 v -15.351 z"
       sodipodi:nodetypes="ccccccccccccccccccccccccccccccccccccccccccccc"
       inkscape:connector-curvature="0" /><rect
       style="fill:#ffc836;fill-opacity:1;stroke:none;stroke-width:0.908957;stroke-linecap:round;stroke-linejoin:round"
       id="rect1123"
       width="3.2413139"
       height="12.660756"
       x="677.31848"
       y="257.72705"
       transform="matrix(0,1,1,0,0,0)" /><path
       id="path1122"
       style="fill:url(#linearGradient2134);fill-opacity:1;stroke:none;stroke-width:0.999992;stroke-linecap:round;stroke-linejoin:round"
       d="m 255.41065,697.84402 c 8.27159,-3.2e-4 14.97687,-6.70583 14.97687,-14.97739 h 5.1e-4 l -2.1e-4,-5.54815 h -12.66077 l -2.6e-4,5.54815 c -1.6e-4,1.2793 -1.03735,2.31627 -2.31665,2.31614 v 5.1e-4 h -57.11176 c -1.2793,-1.7e-4 -2.31625,-1.03735 -2.31614,-2.31665 h -5.2e-4 V 606.49452 H 183.321 v 76.37211 c 2e-5,8.27179 6.70561,14.97739 14.97738,14.97739 z"
       sodipodi:nodetypes="ccccccccccccccsc"
       inkscape:connector-curvature="0" /><path
       id="path1123"
       style="fill:url(#linearGradient2126);fill-opacity:1;stroke:none;stroke-width:0.999992;stroke-linecap:round;stroke-linejoin:round"
       d="m 291.25436,605.22881 c -3.2e-4,-8.27158 -6.70583,-14.97686 -14.97739,-14.97686 v -5.1e-4 l -5.88894,2.7e-4 v 12.66124 l 5.88894,-2.7e-4 c 1.2793,1.6e-4 2.31627,1.03735 2.31614,2.31664 h 5.1e-4 v 57.11176 c -1.7e-4,1.2793 -1.03735,2.31625 -2.31665,2.31614 v 5.2e-4 h -76.37211 v 12.66072 h 76.37211 c 8.27179,-2e-5 14.97739,-6.70561 14.97739,-14.97738 z"
       sodipodi:nodetypes="ccccccccccccccsc"
       inkscape:connector-curvature="0" /><text
       xml:space="preserve"
       style="font-style:normal;font-variant:normal;font-weight:normal;font-stretch:normal;font-size:67.4617px;line-height:1.25;font-family:Roboto;-inkscape-font-specification:'Roboto, @wght=600,wdth=100.0';font-variant-ligatures:normal;font-variant-caps:normal;font-variant-numeric:normal;font-variant-east-asian:normal;font-variation-settings:'wdth' 100, 'wght' 600;fill:#000000;fill-opacity:0;stroke:none;stroke-width:0;stroke-miterlimit:4;stroke-dasharray:none"
       x="301.74039"
       y="657.91119"
       id="text2144"><tspan
         sodipodi:role="line"
         id="tspan2142"
         x="301.74039"
         y="657.91119"
         style="font-style:normal;font-variant:normal;font-weight:normal;font-stretch:normal;font-size:67.4617px;font-family:Roboto;-inkscape-font-specification:'Roboto, @wght=600,wdth=100.0';font-variant-ligatures:normal;font-variant-caps:normal;font-variant-numeric:normal;font-variant-east-asian:normal;font-variation-settings:'wdth' 100, 'wght' 600;fill:#000000;fill-opacity:0;stroke:none;stroke-width:0;stroke-miterlimit:4;stroke-dasharray:none">PyCal</tspan></text><path
       transform="matrix(0.31622683,0,0,0.31622683,-89.748318,496.3193)"
       inkscape:connector-curvature="0"
       id="path859"
       d="M 1252.5725,434.77234 V 359.168 l 35.25,0.48203 c 38.1294,0.52142 41.0446,0.88497 52.6888,6.57087 6.2056,3.03018 15.2447,10.89385 18.5249,16.11587 1.223,1.94696 3.273,6.23992 4.5556,9.53992 3.2036,8.24252 3.2978,24.22713 0.1928,32.73308 -3.9845,10.91556 -10.6877,18.45419 -21.0683,23.69435 -10.6105,5.35612 -15.7271,6.22719 -39.8938,6.79162 l -22.25,0.51966 v 27.38065 27.38064 h -14 -14 z m 73,-3.76263 c 9.0054,-4.80369 12.3741,-10.81174 12.4478,-22.2009 0.046,-7.06697 -0.3235,-8.80382 -2.9763,-14 -2.41,-4.72046 -4.0914,-6.56862 -8.2319,-9.04834 -6.6467,-3.9806 -9.2016,-4.35945 -29.4896,-4.37278 l -16.75,-0.011 v 26.0724 26.0724 l 20.75,-0.3224 c 17.9423,-0.27878 21.2236,-0.57502 24.25,-2.18938 z"
       style="font-variation-settings:'wdth' 100, 'wght' 600;fill:#366a96;fill-opacity:1;fill-rule:evenodd;stroke:none;stroke-width:0;stroke-miterlimit:4;stroke-dasharray:none" /><path
       transform="matrix(0.31622683,0,0,0.31622683,-89.748318,496.3193)"
       inkscape:connector-curvature="0"
       id="path861"
       d="m 1397.0725,555.94009 c -0.55,-0.21979 -2.6875,-0.68186 -4.75,-1.02682 l -3.75,-0.62721 v -9.95468 -9.95469 h 5.9349 c 10.8296,0 15.3281,-3.27587 20.0394,-14.59298 1.6641,-3.99739 3.0257,-7.82883 3.0257,-8.51431 0,-0.68548 -8.775,-26.10218 -19.5,-56.48155 -10.725,-30.37937 -19.5,-55.51216 -19.5,-55.85065 0,-0.33848 6.3723,-0.49057 14.1606,-0.33797 l 14.1606,0.27746 11.1313,36.20862 c 6.1223,19.91474 11.4194,36.4966 11.7714,36.84857 0.6865,0.68649 1.2347,-1.01509 14.4363,-44.80719 l 8.667,-28.75 h 14.1807 14.1807 l -22.7491,65.32586 c -12.5121,35.92922 -24.2314,68.36574 -26.0429,72.08115 -3.993,8.18937 -11.7014,15.65304 -18.6111,18.02029 -4.7326,1.62137 -14.8513,2.90906 -16.7855,2.1361 z"
       style="font-variation-settings:'wdth' 100, 'wght' 600;fill:#366a96;fill-opacity:1;fill-rule:evenodd;stroke:none;stroke-width:0;stroke-miterlimit:4;stroke-dasharray:none" /><path
       transform="matrix(0.31622683,0,0,0.31622683,-89.748318,496.3193)"
       inkscape:connector-curvature="0"
       id="path863"
       d="m 1538.2174,510.7927 c -20.0689,-4.85819 -36.6042,-22.0867 -42.1491,-43.91601 -6.3273,-24.90994 -3.9135,-58.84371 5.5144,-77.52019 14.5642,-28.85146 51.25,-40.15432 82.5235,-25.42539 8.4722,3.99017 15.013,9.54909 19.9016,16.91405 4.3658,6.5774 8.2195,16.44893 9.145,23.42547 l 0.6774,5.10606 h -13.6098 -13.6098 l -0.555,-2.75 c -1.335,-6.61436 -3.6673,-13.22756 -5.7604,-16.3335 -6.9597,-10.32748 -26.9157,-13.95926 -40.4268,-7.35724 -8.3109,4.06103 -13.7544,12.12392 -17.001,25.18181 -2.4216,9.73991 -2.4011,44.85677 0.032,54.6559 3.4148,13.75299 10.195,22.66601 19.989,26.27695 4.6351,1.70887 18.4434,1.58674 24.5167,-0.21685 9.2741,-2.75411 15.3513,-10.12606 17.6885,-21.45707 l 1.1344,-5.5 13.6723,-0.27822 13.6722,-0.27822 v 2.92289 c 0,4.39275 -3.7977,15.93909 -7.2361,22.00054 -6.7113,11.8308 -20.6745,21.5854 -35.2639,24.63506 -8.7427,1.8275 -25.1276,1.78459 -32.8551,-0.086 z"
       style="font-variation-settings:'wdth' 100, 'wght' 600;mix-blend-mode:normal;fill:#ffc836;fill-opacity:1;fill-rule:evenodd;stroke:#000000;stroke-width:0;stroke-miterlimit:4;stroke-dasharray:none;stroke-opacity:1" /><path
       transform="matrix(0.31622683,0,0,0.31622683,-89.748318,496.3193)"
       inkscape:connector-curvature="0"
       id="path865"
       d="m 1657.3184,511.29102 c -11.107,-2.61773 -22.0347,-12.34442 -25.2099,-22.43927 -3.7234,-11.83765 0.063,-26.55202 8.7445,-33.98319 9.3911,-8.03838 19.9395,-11.0399 42.5984,-12.12123 l 14.379,-0.68619 -0.6491,-6.98348 c -1.2606,-13.56363 -5.4839,-17.98855 -17.7048,-18.54986 -11.0508,-0.50758 -17.4445,3.18557 -19.4672,11.24473 l -0.6536,2.60416 h -12.8916 -12.8916 v -2.84028 c 0,-4.43877 5.6769,-14.72724 10.3183,-18.7005 10.4814,-8.97236 27.2158,-13.53845 42.6817,-11.64597 4.675,0.57206 11.1588,2.06282 14.4084,3.31281 7.7446,2.97905 16.5298,11.05716 19.6988,18.11347 2.3041,5.13035 2.3776,6.17564 2.9709,42.26047 0.553,33.63072 0.7952,37.56913 2.6603,43.25 l 2.0519,6.25 h -13.8482 -13.8481 l -1.0414,-3.75 c -0.5728,-2.0625 -1.044,-4.51946 -1.047,-5.45992 0,-1.2858 -1.6185,-0.48909 -6.5085,3.21213 -3.5928,2.71933 -8.8205,5.61027 -11.6815,6.45992 -5.5821,1.6577 -17.0047,1.8816 -23.0697,0.4522 z m 24.6628,-20.01072 c 5.3599,-1.48819 11.1944,-5.52533 13.5923,-9.40517 1.6577,-2.68228 1.999,-4.98151 1.999,-13.4669 v -10.23239 l -12.75,0.35589 c -10.8794,0.30368 -13.4459,0.69778 -17.493,2.68625 -7.1483,3.51214 -9.257,7.11767 -9.257,15.82814 0,6.25859 0.3176,7.51349 2.5,9.8775 4.774,5.17127 12.6801,6.78017 21.4087,4.35668 z"
       style="font-variation-settings:'wdth' 100, 'wght' 600;mix-blend-mode:normal;fill:#ffc836;fill-opacity:1;fill-rule:nonzero;stroke:#000000;stroke-width:0;stroke-miterlimit:4;stroke-dasharray:none;stroke-opacity:1" /><path
       transform="matrix(0.31622683,0,0,0.31622683,-89.748318,496.3193)"
       inkscape:connector-curvature="0"
       id="path867"
       d="m 1751.5725,430.87669 v -79.5 h 13 13 v 79.5 79.5 h -13 -13 z"
       style="font-variation-settings:'wdth' 100, 'wght' 600;mix-blend-mode:normal;fill:#ffc836;fill-opacity:1;fill-rule:evenodd;stroke:#000000;stroke-width:0;stroke-miterlimit:4;stroke-dasharray:none;stroke-opacity:1" /></g></svg>
