<?xml version="1.0" encoding="UTF-8" standalone="no"?>
<svg
   xmlns:dc="http://purl.org/dc/elements/1.1/"
   xmlns:cc="http://creativecommons.org/ns#"
   xmlns:rdf="http://www.w3.org/1999/02/22-rdf-syntax-ns#"
   xmlns:svg="http://www.w3.org/2000/svg"
   xmlns="http://www.w3.org/2000/svg"
   xmlns:xlink="http://www.w3.org/1999/xlink"
   xmlns:sodipodi="http://sodipodi.sourceforge.net/DTD/sodipodi-0.dtd"
   xmlns:inkscape="http://www.inkscape.org/namespaces/inkscape"
   inkscape:export-ydpi="300"
   inkscape:export-xdpi="300"
   inkscape:export-filename="/Users/stevepiercy/projects/pycal.org/assets/favicon.png"
   sodipodi:docname="python-calendar-ecosystem-icon-logo.svg"
   inkscape:version="1.0rc1 (09960d6, 2020-04-09)"
   xml:space="preserve"
   id="svg1"
   version="1.1"
   viewBox="-12.661 -12.661 152.70373 152.70373"
   height="127.76544mm"
   width="127.76544mm"><metadata
     id="metadata899"><rdf:RDF><cc:Work
         rdf:about=""><dc:format>image/svg+xml</dc:format><dc:type
           rdf:resource="http://purl.org/dc/dcmitype/StillImage" /><dc:title /></cc:Work></rdf:RDF></metadata><sodipodi:namedview
     showgrid="false"
     inkscape:document-rotation="0"
     inkscape:current-layer="layer1"
     inkscape:window-maximized="0"
     inkscape:window-y="25"
     inkscape:window-x="1379"
     inkscape:window-height="1232"
     inkscape:window-width="1841"
     inkscape:cy="208.86465"
     inkscape:cx="564.37071"
     inkscape:zoom="0.81"
     inkscape:document-units="mm"
     inkscape:deskcolor="#505050"
     inkscape:pagecheckerboard="0"
     inkscape:pageopacity="0"
     inkscape:showpageshadow="0"
     borderopacity="1"
     bordercolor="#eeeeee"
     pagecolor="#505050"
     id="namedview1"
     fit-margin-left="10"
     fit-margin-right="10"
     fit-margin-bottom="10"
     fit-margin-top="10" /><defs
     id="defs1"><linearGradient
       inkscape:collect="always"
       id="linearGradient2140"><stop
         id="stop2136"
         offset="0"
         style="stop-color:#366a96;stop-opacity:1" /><stop
         id="stop2138"
         offset="1"
         style="stop-color:#3b79aa;stop-opacity:1" /></linearGradient><linearGradient
       id="linearGradient2124"
       inkscape:collect="always"><stop
         id="stop2120"
         offset="0"
         style="stop-color:#ffe873;stop-opacity:1" /><stop
         id="stop2122"
         offset="1"
         style="stop-color:#ffc836;stop-opacity:1" /></linearGradient><linearGradient
       gradientTransform="translate(239.20131,60.063764)"
       gradientUnits="userSpaceOnUse"
       y2="549.31537"
       x2="31.289402"
       y1="530.40845"
       x1="-55.38303"
       id="linearGradient1120"
       xlink:href="#linearGradient2140"
       inkscape:collect="always" /><linearGradient
       gradientTransform="rotate(-90,137.45613,483.98203)"
       y2="550.64142"
       x2="30.626369"
       y1="529.84692"
       x1="-55.88031"
       gradientUnits="userSpaceOnUse"
       id="linearGradient1121"
       xlink:href="#linearGradient2140"
       inkscape:collect="always" /><linearGradient
       gradientUnits="userSpaceOnUse"
       y2="590.25171"
       x2="270.38803"
       y1="677.21368"
       x1="250.95847"
       id="linearGradient2126"
       xlink:href="#linearGradient2124"
       inkscape:collect="always" /><linearGradient
       gradientUnits="userSpaceOnUse"
       y2="677.31848"
       x2="270.38782"
       y1="652.16925"
       x1="183.321"
       id="linearGradient2134"
       xlink:href="#linearGradient2124"
       inkscape:collect="always" /></defs><g
     transform="translate(-163.16352,-569.75318)"
     id="layer1"
     inkscape:groupmode="layer"
     inkscape:label="Ebene 1"><path
       inkscape:connector-curvature="0"
       sodipodi:nodetypes="ccccccccccccccsc"
       d="m 162.4544,662.34109 c 3.1e-4,8.27159 6.70582,14.97687 14.97738,14.97687 v 5.1e-4 h 5.88923 c 0.0938,-4.29613 0.13592,-4.2338 0,-12.66124 h -5.88923 c -1.2793,-1.6e-4 -2.31626,-1.03735 -2.31614,-2.31665 h -5.1e-4 v -57.11176 c 1.7e-4,-1.2793 1.03735,-2.31625 2.31665,-2.31614 v -5.2e-4 h 76.37212 v -12.66072 h -76.37212 c -8.27179,2e-5 -14.97738,6.70561 -14.97738,14.97738 z"
       style="fill:url(#linearGradient1121);fill-opacity:1;stroke-width:0.999992;stroke-linecap:round;stroke-linejoin:round"
       id="path1121" /><path
       inkscape:connector-curvature="0"
       sodipodi:nodetypes="ccccccccccccccsc"
       d="m 198.29838,569.04406 c -8.27159,3.1e-4 -14.97687,6.70582 -14.97687,14.97738 h -5.1e-4 l 0.49728,6.4508 11.99789,-0.22086 0.16607,-6.2299 c 1.6e-4,-1.2793 1.03735,-2.31626 2.31665,-2.31614 v -5.1e-4 h 57.11176 c 1.2793,1.7e-4 2.31625,1.03735 2.31614,2.31665 h 5.2e-4 v 76.37211 h 12.66072 v -76.37211 c -2e-5,-8.27179 -6.70561,-14.97738 -14.97738,-14.97738 z"
       style="fill:url(#linearGradient1120);fill-opacity:1;stroke-width:0.999992;stroke-linecap:round;stroke-linejoin:round"
       id="path1063" /><path
       inkscape:connector-curvature="0"
       sodipodi:nodetypes="ccccccccccccccccccccccccccccccccccccccccccccc"
       d="m 199.90486,606.49476 v 15.35076 h 15.351 v -15.351 z m 19.27376,-2.4e-4 v 15.351 h 15.351 v -15.351 z m 19.27427,0 v 15.351 h 15.35101 v -15.351 z m -38.54803,19.27376 v 15.351 h 15.351 v -15.351 z m 19.27376,0 v 15.351 h 15.351 v -15.351 z m 19.27427,0 v 15.351 h 15.35101 v -15.351 z m -38.54803,19.27427 v 15.351 h 15.351 v -15.351 z m 19.27376,0 v 15.351 h 15.351 v -15.351 z m 19.27427,0 v 15.351 h 15.35101 v -15.351 z"
       style="fill:#3b79aa;fill-opacity:1;stroke-width:1;stroke-linecap:round;stroke-linejoin:round"
       id="rect1074" /><rect
       transform="matrix(0,1,1,0,0,0)"
       y="257.72705"
       x="677.31848"
       height="12.660756"
       width="3.2413139"
       id="rect1123"
       style="fill:#ffc836;fill-opacity:1;stroke:none;stroke-width:0.908957;stroke-linecap:round;stroke-linejoin:round" /><path
       inkscape:connector-curvature="0"
       sodipodi:nodetypes="ccccccccccccccsc"
       d="m 255.41065,697.84402 c 8.27159,-3.2e-4 14.97687,-6.70583 14.97687,-14.97739 h 5.1e-4 l -2.1e-4,-5.54815 h -12.66077 l -2.6e-4,5.54815 c -1.6e-4,1.2793 -1.03735,2.31627 -2.31665,2.31614 v 5.1e-4 h -57.11176 c -1.2793,-1.7e-4 -2.31625,-1.03735 -2.31614,-2.31665 h -5.2e-4 V 606.49452 H 183.321 v 76.37211 c 2e-5,8.27179 6.70561,14.97739 14.97738,14.97739 z"
       style="fill:url(#linearGradient2134);fill-opacity:1;stroke:none;stroke-width:0.999992;stroke-linecap:round;stroke-linejoin:round"
       id="path1122" /><path
       inkscape:connector-curvature="0"
       sodipodi:nodetypes="ccccccccccccccsc"
       d="m 291.25436,605.22881 c -3.2e-4,-8.27158 -6.70583,-14.97686 -14.97739,-14.97686 v -5.1e-4 l -5.88894,2.7e-4 v 12.66124 l 5.88894,-2.7e-4 c 1.2793,1.6e-4 2.31627,1.03735 2.31614,2.31664 h 5.1e-4 v 57.11176 c -1.7e-4,1.2793 -1.03735,2.31625 -2.31665,2.31614 v 5.2e-4 h -76.37211 v 12.66072 h 76.37211 c 8.27179,-2e-5 14.97739,-6.70561 14.97739,-14.97738 z"
       style="fill:url(#linearGradient2126);fill-opacity:1;stroke:none;stroke-width:0.999992;stroke-linecap:round;stroke-linejoin:round"
       id="path1123" /></g></svg>
