<?xml version="1.0" encoding="UTF-8" standalone="no"?>
<!-- Created with Inkscape (http://www.inkscape.org/) -->

<svg
   width="130mm"
   height="130mm"
   viewBox="-12.661 -12.661 155.37444 155.37445"
   version="1.1"
   id="svg1"
   xml:space="preserve"
   inkscape:version="1.3.2 (1:1.3.2+202311252150+091e20ef0f)"
   sodipodi:docname="logo.svg"
   inkscape:export-filename="logo-32.png"
   inkscape:export-xdpi="6.2523074"
   inkscape:export-ydpi="6.2523074"
   xmlns:inkscape="http://www.inkscape.org/namespaces/inkscape"
   xmlns:sodipodi="http://sodipodi.sourceforge.net/DTD/sodipodi-0.dtd"
   xmlns:xlink="http://www.w3.org/1999/xlink"
   xmlns="http://www.w3.org/2000/svg"
   xmlns:svg="http://www.w3.org/2000/svg"><sodipodi:namedview
     id="namedview1"
     pagecolor="#505050"
     bordercolor="#eeeeee"
     borderopacity="1"
     inkscape:showpageshadow="0"
     inkscape:pageopacity="0"
     inkscape:pagecheckerboard="0"
     inkscape:deskcolor="#505050"
     inkscape:document-units="mm"
     inkscape:zoom="0.52473017"
     inkscape:cx="-2.8586121"
     inkscape:cy="250.60499"
     inkscape:window-width="1920"
     inkscape:window-height="1029"
     inkscape:window-x="0"
     inkscape:window-y="25"
     inkscape:window-maximized="1"
     inkscape:current-layer="layer1" /><defs
     id="defs1"><linearGradient
       id="linearGradient1127"
       inkscape:collect="always"><stop
         style="stop-color:#f5c94c;stop-opacity:1;"
         offset="0"
         id="stop1126" /><stop
         style="stop-color:#f5c745;stop-opacity:1;"
         offset="1"
         id="stop1127" /></linearGradient><linearGradient
       id="linearGradient1125"
       inkscape:collect="always"><stop
         style="stop-color:#f5c94c;stop-opacity:1;"
         offset="0"
         id="stop1124" /><stop
         style="stop-color:#f5c745;stop-opacity:1;"
         offset="1"
         id="stop1125" /></linearGradient><linearGradient
       id="linearGradient1119"
       inkscape:collect="always"><stop
         style="stop-color:#22577f;stop-opacity:1;"
         offset="0"
         id="stop1119" /><stop
         style="stop-color:#2b608a;stop-opacity:1;"
         offset="1"
         id="stop1120" /></linearGradient><linearGradient
       inkscape:collect="always"
       xlink:href="#linearGradient1119"
       id="linearGradient1120"
       x1="-1.0665083"
       y1="521.64105"
       x2="18.526001"
       y2="540.86169"
       gradientUnits="userSpaceOnUse"
       gradientTransform="translate(0.28582594,0.62624094)" /><linearGradient
       inkscape:collect="always"
       xlink:href="#linearGradient1119"
       id="linearGradient1121"
       gradientUnits="userSpaceOnUse"
       x1="-1.0665083"
       y1="521.64105"
       x2="18.526001"
       y2="540.86169"
       gradientTransform="rotate(-90,-11.720368,573.72101)" /><linearGradient
       inkscape:collect="always"
       xlink:href="#linearGradient1127"
       id="linearGradient1122"
       gradientUnits="userSpaceOnUse"
       gradientTransform="rotate(180,-12.203879,573.6934)"
       x1="-1.0665083"
       y1="521.64105"
       x2="18.526001"
       y2="540.86169" /><linearGradient
       inkscape:collect="always"
       xlink:href="#linearGradient1125"
       id="linearGradient1123"
       gradientUnits="userSpaceOnUse"
       gradientTransform="rotate(90,-12.687523,574.00669)"
       x1="-1.0665083"
       y1="521.64105"
       x2="18.526001"
       y2="540.86169" /></defs><g
     inkscape:label="Ebene 1"
     inkscape:groupmode="layer"
     id="layer1"
     transform="translate(77.087318,-508.9803)"><rect
       style="fill:#1c4d7c;fill-opacity:1;stroke-width:1.14514;stroke-linecap:round;stroke-linejoin:round"
       id="rect1097"
       width="5.1445742"
       height="12.660756"
       x="-59.957951"
       y="605.21967" /><path
       id="path1121"
       style="fill:url(#linearGradient1121);fill-opacity:1;stroke-width:0.999992;stroke-linecap:round;stroke-linejoin:round"
       d="m -76.461075,602.90357 c 3.1e-4,8.27159 6.705819,14.97687 14.97738,14.97687 v 5.1e-4 h 2.306839 v -12.66124 h -2.306839 c -1.279301,-1.6e-4 -2.316261,-1.03735 -2.316141,-2.31665 h -5.09e-4 V 545.7913 c 1.7e-4,-1.2793 1.037349,-2.31625 2.31665,-2.31614 v -5.2e-4 h 76.372111 v -12.66072 h -76.372111 c -8.27179,2e-5 -14.97738,6.70561 -14.97738,14.97738 z"
       sodipodi:nodetypes="ccccccccccccccsc" /><rect
       style="fill:#e4af3f;fill-opacity:1;stroke-width:1.24177;stroke-linecap:round;stroke-linejoin:round"
       id="rect1124"
       width="6.0494213"
       height="12.660756"
       x="30.238895"
       y="530.81415" /><rect
       style="fill:#1c4d7c;fill-opacity:1;stroke-width:1.15616;stroke-linecap:round;stroke-linejoin:round"
       id="rect1084"
       width="5.2440867"
       height="12.660756"
       x="525.56964"
       y="-55.594292"
       transform="matrix(0,1,1,0,0,0)" /><path
       id="path1063"
       style="fill:url(#linearGradient1120);stroke-width:0.999992;stroke-linecap:round;stroke-linejoin:round"
       d="m -40.617104,509.60654 c -8.271584,3.1e-4 -14.976865,6.70582 -14.976863,14.97738 h -5.17e-4 v 2.30684 h 12.661243 v -2.30684 c 1.64e-4,-1.2793 1.037351,-2.31626 2.316654,-2.31614 v -5.1e-4 h 57.11176 c 1.279296,1.7e-4 2.316251,1.03735 2.316137,2.31665 h 5.17e-4 v 76.37211 h 12.660726 v -76.37211 c -2.2e-5,-8.27179 -6.705617,-14.97738 -14.97738,-14.97738 z"
       sodipodi:nodetypes="ccccccccccccccsc" /><path
       id="rect1074"
       style="fill:#2b628b;fill-opacity:1;stroke-width:1;stroke-linecap:round;stroke-linejoin:round"
       d="M -39.01062,547.05724 V 562.408 h 15.351001 v -15.351 z m 19.273759,-2.4e-4 v 15.351 h 15.3510002 v -15.351 z m 19.27427522,0 v 15.351 H 14.888416 V 547.057 Z M -39.01062,566.33076 v 15.351 h 15.351001 v -15.351 z m 19.273759,0 v 15.351 h 15.3510002 v -15.351 z m 19.27427522,0 v 15.351 H 14.888416 v -15.351 z M -39.01062,585.60503 v 15.351 h 15.351001 v -15.351 z m 19.273759,0 v 15.351 h 15.3510002 v -15.351 z m 19.27427522,0 v 15.351 H 14.888416 v -15.351 z"
       sodipodi:nodetypes="ccccccccccccccccccccccccccccccccccccccccccccc" /><rect
       style="fill:#e4af3f;fill-opacity:1;stroke-width:1.415;stroke-linecap:round;stroke-linejoin:round"
       id="rect1123"
       width="7.8549728"
       height="12.660756"
       x="615.5741"
       y="18.811556"
       transform="matrix(0,1,1,0,0,0)" /><path
       id="path1122"
       style="fill:url(#linearGradient1122);fill-opacity:1;stroke-width:0.999992;stroke-linecap:round;stroke-linejoin:round"
       d="m 16.495174,638.4065 c 8.271589,-3.2e-4 14.976869,-6.70583 14.976869,-14.97739 h 5.1e-4 v -2.30683 h -12.66124 v 2.30683 c -1.6e-4,1.2793 -1.03735,2.31627 -2.316649,2.31614 v 5.1e-4 h -57.11176 c -1.2793,-1.7e-4 -2.31625,-1.03735 -2.31614,-2.31665 h -5.2e-4 V 547.057 h -12.66072 v 76.37211 c 2e-5,8.27179 6.70561,14.97739 14.97738,14.97739 z"
       sodipodi:nodetypes="ccccccccccccccsc" /><path
       id="path1123"
       style="fill:url(#linearGradient1123);fill-opacity:1;stroke-width:0.999992;stroke-linecap:round;stroke-linejoin:round"
       d="m 52.33888,545.79129 c -3.2e-4,-8.27158 -6.70583,-14.97686 -14.97739,-14.97686 v -5.1e-4 h -2.30683 v 12.66124 h 2.30683 c 1.2793,1.6e-4 2.31627,1.03735 2.31614,2.31664 h 5.1e-4 v 57.11176 c -1.7e-4,1.2793 -1.03735,2.31625 -2.31665,2.31614 v 5.2e-4 h -76.37211 v 12.66072 h 76.372111 c 8.27179,-2e-5 14.97739,-6.70561 14.97739,-14.97738 z"
       sodipodi:nodetypes="ccccccccccccccsc" /></g></svg>
